HIERARCHY
ROOT Hips
{
	OFFSET 0.000000 0.000000 0.000000
	CHANNELS 6 Xposition Yposition Zposition Zrotation Yrotation Xrotation 
	JOINT LHipJoint
	{
		OFFSET 0.000000 0.000000 0.000000
		CHANNELS 3 Zrotation Yrotation Xrotation
		JOINT LeftUpLeg
		{
			OFFSET 1.363060 -1.794630 0.839290
			CHANNELS 3 Zrotation Yrotation Xrotation
			JOINT LeftLeg
			{
				OFFSET 2.448110 -6.726130 0.000000
				CHANNELS 3 Zrotation Yrotation Xrotation
				JOINT LeftFoot
				{
					OFFSET 2.562200 -7.039590 0.000000
					CHANNELS 3 Zrotation Yrotation Xrotation
					JOINT LeftToeBase
					{
						OFFSET 0.157640 -0.433110 2.322550
						CHANNELS 3 Zrotation Yrotation Xrotation
						End Site
						{
							OFFSET 0.000000 0.000000 0.000000
						}
					}
				}
			}
		}
	}
	JOINT RHipJoint
	{
		OFFSET 0.000000 0.000000 0.000000
		CHANNELS 3 Zrotation Yrotation Xrotation
		JOINT RightUpLeg
		{
			OFFSET -1.305520 -1.794630 0.839290
			CHANNELS 3 Zrotation Yrotation Xrotation
			JOINT RightLeg
			{
				OFFSET -2.542530 -6.985550 0.000000
				CHANNELS 3 Zrotation Yrotation Xrotation
				JOINT RightFoot
				{
					OFFSET -2.568260 -7.056230 0.000000
					CHANNELS 3 Zrotation Yrotation Xrotation
					JOINT RightToeBase
					{
						OFFSET -0.164730 -0.452590 2.363150
						CHANNELS 3 Zrotation Yrotation Xrotation
						End Site
						{
							OFFSET 0.000000 0.000000 0.000000
						}
					}
				}
			}
		}
	}
	JOINT LowerBack
	{
		OFFSET 0.000000 0.000000 0.000000
		CHANNELS 3 Zrotation Yrotation Xrotation
		JOINT Spine
		{
			OFFSET 0.028270 2.035590 -0.193380
			CHANNELS 3 Zrotation Yrotation Xrotation
			JOINT Spine1
			{
				OFFSET 0.056720 2.048850 -0.042750
				CHANNELS 3 Zrotation Yrotation Xrotation
				JOINT Neck
				{
					OFFSET 0.000000 0.000000 0.000000
					CHANNELS 3 Zrotation Yrotation Xrotation
					JOINT Neck1
					{
						OFFSET -0.054170 1.746240 0.172020
						CHANNELS 3 Zrotation Yrotation Xrotation
						JOINT Head
						{
							OFFSET 0.104070 1.761360 -0.123970
							CHANNELS 3 Zrotation Yrotation Xrotation
							End Site
							{
								OFFSET 0.000000 0.000000 0.000000
							}
						}
					}
				}
				JOINT LeftShoulder
				{
					OFFSET 0.000000 0.000000 0.000000
					CHANNELS 3 Zrotation Yrotation Xrotation
					JOINT LeftArm
					{
						OFFSET 3.362410 1.200890 -0.311210
						CHANNELS 3 Zrotation Yrotation Xrotation
						JOINT LeftForeArm
						{
							OFFSET 4.983000 -0.000000 -0.000000
							CHANNELS 3 Zrotation Yrotation Xrotation
							JOINT LeftHand
							{
								OFFSET 3.483560 -0.000000 -0.000000
								CHANNELS 3 Zrotation Yrotation Xrotation
								JOINT LeftFingerBase
								{
									OFFSET 0.000000 0.000000 0.000000
									CHANNELS 3 Zrotation Yrotation Xrotation
									JOINT LeftHandIndex1
									{
										OFFSET 0.715260 -0.000000 -0.000000
										CHANNELS 3 Zrotation Yrotation Xrotation
										End Site
										{
											OFFSET 0.000000 0.000000 0.000000
										}
									}
								}
								JOINT LThumb
								{
									OFFSET 0.000000 0.000000 0.000000
									CHANNELS 3 Zrotation Yrotation Xrotation
									End Site
									{
										OFFSET 0.000000 0.000000 0.000000
									}
								}
							}
						}
					}
				}
				JOINT RightShoulder
				{
					OFFSET 0.000000 0.000000 0.000000
					CHANNELS 3 Zrotation Yrotation Xrotation
					JOINT RightArm
					{
						OFFSET -3.136600 1.374050 -0.404650
						CHANNELS 3 Zrotation Yrotation Xrotation
						JOINT RightForeArm
						{
							OFFSET -5.241900 -0.000000 -0.000000
							CHANNELS 3 Zrotation Yrotation Xrotation
							JOINT RightHand
							{
								OFFSET -3.444170 -0.000000 -0.000000
								CHANNELS 3 Zrotation Yrotation Xrotation
								JOINT RightFingerBase
								{
									OFFSET 0.000000 0.000000 0.000000
									CHANNELS 3 Zrotation Yrotation Xrotation
									JOINT RightHandIndex1
									{
										OFFSET -0.622530 -0.000000 -0.000000
										CHANNELS 3 Zrotation Yrotation Xrotation
										End Site
										{
											OFFSET 0.000000 0.000000 0.000000
										}
									}
								}
								JOINT RThumb
								{
									OFFSET 0.000000 0.000000 0.000000
									CHANNELS 3 Zrotation Yrotation Xrotation
									End Site
									{
										OFFSET 0.000000 0.000000 0.000000
									}
								}
							}
						}
					}
				}
			}
		}
	}
}
MOTION
Frames: 7
Frame Time: 0.033333
-1.715828 16.337892 23.755607 3.101692 3.205057 8.076418 -4.430478 13.731686 -2.229211 -21.738832 -4.879728 -9.702771 -14.072759 -8.392121 -21.933350 1.877905 14.265038 31.055979 0.000000 0.000000 0.000000 10.321665 -9.208211 5.729894 3.067290 6.224129 -11.059997 -2.041814 -19.578491 48.656213 13.293505 -21.313136 9.814779 0.000000 0.000000 0.000000 -2.836845 -0.727834 2.184094 1.061221 -1.519629 12.728378 1.738845 -0.441601 -9.671458 6.345149 -1.017263 -9.596309 -2.650926 -0.220577 -1.649872 0.000000 0.000000 0.000000 1.494953 9.317881 9.011725 -69.943363 -4.645085 19.578424 -14.448403 -78.427962 0.395181 2.638563 -15.064553 0.190383 2.704129 -15.058375 0.000000 0.000000 0.000000 0.000000 0.000000 0.000000 0.000000 -6.154283 -10.863160 7.864489 68.098718 5.062428 18.450376 15.916225 77.459503 0.360546 -1.151293 12.668736 0.177385 -1.177806 12.670181 0.000000 0.000000 0.000000 0.000000 0.000000 0.000000 0.000000 
-1.728027 16.364944 23.955323 3.439092 3.085851 8.112406 -3.995061 13.910284 -2.441220 -22.714607 -4.841329 -9.201822 -13.449516 -7.967254 -20.408277 1.387348 12.581052 27.659005 0.000000 0.000000 0.000000 10.274461 -9.327224 6.042009 2.739573 6.089924 -10.970833 -2.133765 -19.413738 48.266011 13.626017 -22.908262 12.018429 0.000000 0.000000 0.000000 -2.935581 -0.700333 2.090115 0.796278 -1.529976 12.818560 1.736976 -0.478347 -9.729023 6.231581 -0.993787 -9.439008 -2.547578 -0.209278 -1.600948 0.000000 0.000000 0.000000 1.453646 9.319269 9.017624 -69.870980 -4.659262 19.631059 -14.479930 -78.398092 0.397197 2.628687 -15.063770 0.191403 2.694001 -15.057685 0.000000 0.000000 0.000000 0.000000 0.000000 0.000000 0.000000 -6.006868 -10.990892 7.824042 68.018564 5.019125 18.483713 15.955904 77.420987 0.361175 -1.142584 12.667636 0.177706 -1.168989 12.669117 0.000000 0.000000 0.000000 0.000000 0.000000 0.000000 0.000000 
-1.739528 16.393864 24.152149 3.755968 2.965253 8.148262 -3.615441 14.095275 -2.660180 -23.625312 -4.817316 -8.769691 -12.789756 -7.505515 -18.802814 0.975621 10.934684 24.366038 0.000000 0.000000 0.000000 10.262552 -9.449530 6.361152 2.391042 5.937729 -10.892606 -2.226414 -19.237084 47.829499 13.889010 -24.488575 14.167887 0.000000 0.000000 0.000000 -3.035432 -0.679424 2.002523 0.556404 -1.542048 12.896031 1.737087 -0.514551 -9.779124 6.130736 -0.972830 -9.297021 -2.455069 -0.199344 -1.556541 0.000000 0.000000 0.000000 1.417173 9.318503 9.023746 -69.806233 -4.672503 19.677984 -14.507155 -78.371991 0.398967 2.620192 -15.063317 0.192298 2.685290 -15.057313 0.000000 0.000000 0.000000 0.000000 0.000000 0.000000 0.000000 -5.874766 -11.106746 7.787603 67.946469 4.979552 18.513740 15.990793 77.387804 0.361747 -1.134918 12.667020 0.177997 -1.161230 12.668534 0.000000 0.000000 0.000000 0.000000 0.000000 0.000000 0.000000 
-1.749112 16.424133 24.345356 4.049953 2.843843 8.184898 -3.294673 14.286882 -2.882459 -24.461946 -4.806349 -8.408386 -12.118139 -7.009501 -17.134290 0.635911 9.353982 21.214653 0.000000 0.000000 0.000000 10.284341 -9.574583 6.686134 2.024498 5.771431 -10.826834 -2.323139 -19.049887 47.356570 14.073444 -26.031644 16.247866 0.000000 0.000000 0.000000 -3.133974 -0.665267 1.919981 0.341706 -1.556028 12.961498 1.739010 -0.550202 -9.822037 6.042346 -0.954371 -9.170448 -2.373364 -0.190712 -1.516759 0.000000 0.000000 0.000000 1.385471 9.315565 9.029964 -69.749092 -4.684851 19.719160 -14.530065 -78.349652 0.400491 2.613076 -15.063196 0.193068 2.677995 -15.057260 0.000000 0.000000 0.000000 0.000000 0.000000 0.000000 0.000000 -5.757831 -11.210753 7.755153 67.882510 4.943742 18.540400 16.020859 77.359901 0.362261 -1.128298 12.666881 0.178258 -1.154531 12.668423 0.000000 0.000000 0.000000 0.000000 0.000000 0.000000 0.000000 
-1.756806 16.455205 24.534216 4.319688 2.720611 8.223118 -3.032107 14.482561 -3.104329 -25.219925 -4.807727 -8.115565 -11.443061 -6.487545 -15.426369 0.360044 7.857750 18.235657 0.000000 0.000000 0.000000 10.337426 -9.700874 7.014730 1.643875 5.595328 -10.773369 -2.420432 -18.854415 46.856666 14.177010 -27.518577 18.243259 0.000000 0.000000 0.000000 -3.230540 -0.657491 1.841562 0.152576 -1.571716 13.015243 1.742835 -0.584971 -9.857742 5.966688 -0.938467 -9.059972 -2.302768 -0.183360 -1.481903 0.000000 0.000000 0.000000 1.358754 9.310420 9.036165 -69.699825 -4.696324 19.754314 -14.548467 -78.331224 0.401759 2.607393 -15.063418 0.193707 2.672170 -15.057538 0.000000 0.000000 0.000000 0.000000 0.000000 0.000000 0.000000 -5.656413 -11.302398 7.726800 67.827085 4.911873 18.563494 16.045901 77.337425 0.362714 -1.122762 12.667226 0.178488 -1.148930 12.668792 0.000000 0.000000 0.000000 0.000000 0.000000 0.000000 0.000000 
-1.762206 16.486657 24.718125 4.564225 2.594358 8.263611 -2.826662 14.679575 -3.322289 -25.894991 -4.821105 -7.889115 -10.777462 -5.945764 -13.698052 0.139917 6.460565 15.448039 0.000000 0.000000 0.000000 10.418411 -9.826896 7.344969 1.253299 5.414040 -10.732200 -2.517554 -18.652035 46.338882 14.198160 -28.932065 20.146634 0.000000 0.000000 0.000000 -3.323539 -0.655497 1.766011 -0.011894 -1.588761 13.058129 1.748307 -0.618516 -9.886703 5.903096 -0.924995 -8.965050 -2.242811 -0.177193 -1.451868 0.000000 0.000000 0.000000 1.336764 9.303348 9.042249 -69.658095 -4.706911 19.783687 -14.562690 -78.316462 0.402783 2.603036 -15.063945 0.194223 2.667707 -15.058107 0.000000 0.000000 0.000000 0.000000 0.000000 0.000000 0.000000 -5.569806 -11.382021 7.702419 67.779894 4.883855 18.583106 16.066203 77.319987 0.363105 -1.118252 12.667999 0.178686 -1.144369 12.669584 0.000000 0.000000 0.000000 0.000000 0.000000 0.000000 0.000000 
-1.764745 16.518033 24.896998 4.783248 2.463745 8.306655 -2.674759 14.873360 -3.535150 -26.485366 -4.843886 -7.722349 -10.135356 -5.388974 -11.965851 -0.032219 5.170584 12.855081 0.000000 0.000000 0.000000 10.524453 -9.949720 7.675798 0.855054 5.231147 -10.701926 -2.614323 -18.444469 45.810575 14.137924 -30.258924 21.956614 0.000000 0.000000 0.000000 -3.413738 -0.658869 1.693213 -0.151131 -1.606870 13.090118 1.755752 -0.650443 -9.908695 5.852242 -0.914069 -8.886754 -2.194057 -0.172226 -1.427085 0.000000 0.000000 0.000000 1.319910 9.294228 9.048126 -69.624384 -4.716628 19.806848 -14.572419 -78.305608 0.403546 2.600103 -15.064794 0.194606 2.664707 -15.058986 0.000000 0.000000 0.000000 0.000000 0.000000 0.000000 0.000000 -5.498715 -11.448809 7.682204 67.741539 4.859950 18.598931 16.081474 77.307866 0.363429 -1.114825 12.669216 0.178849 -1.140906 12.670817 0.000000 0.000000 0.000000 0.000000 0.000000 0.000000 0.000000 
